<svg id="Layer_2" data-name="Layer 2" xmlns="http://www.w3.org/2000/svg" viewBox="0 0 433.48 640"><defs><style>.cls-1{fill:#fcfafc;}</style></defs><g id="J"><path class="cls-1" d="M203.68,36c53.46,12.16,163.67,56.24,163.67,56.24C317.44,37.24,191.77,0,191.77,0Z"/><path class="cls-1" d="M154.78,77.36C282,93.91,371.66,112.49,371.66,112.49c-99.83-52.7-229.38-70.26-229.38-70.26.17,1.18,9.63,35.13,9.63,35.13Z"/><path class="cls-1" d="M78.43,121.62c117.22.33,274.48,7.09,274.48,7.09C245,91.72,74.21,86.14,68.63,86.14Z"/><path class="cls-1" d="M433.44,105.11C432.11,75.83,402.59,55.87,398.3,53A92.71,92.71,0,0,0,370,40.2,59.56,59.56,0,0,1,344.8,145.6H50.5A50.5,50.5,0,0,0,0,196.1V589.5A50.5,50.5,0,0,0,50.5,640H383a50.5,50.5,0,0,0,50.5-50.5V106.41C433.47,106.11,433.46,105.66,433.44,105.11ZM315.38,444.8q0,48.34-8.5,74.36-11.42,34-41.43,54.58t-79.14,20.58q-57.63,0-88.7-32.27T66.27,467.38l74.1-8.5q1.32,33.47,9.82,47.27,12.75,21,38.78,21,26.29,0,37.18-15T237,449.85V198.35h78.34Z"/></g></svg>